<svg id="Layer_1" viewBox="0 0 24 24" xmlns="http://www.w3.org/2000/svg" data-name="Layer 1"><path d="m24 12c0-1.026-.331-1.998-.959-2.811-.12-.156-.12-.419 0-.575.627-.812.958-1.784.958-2.81 0-1.051-.43-1.859-.819-2.593-.097-.185-.051-.792.091-1.219l.689-1.988-5.768-.004c-1.175 0-2.233.661-2.765 1.722-.503 1.007-.404 2.183.288 3.105.218.282.333.619.333.976s-.115.694-.331.975c-.953 1.23-.953 3.016-.002 4.245.218.282.333.619.333.976s-.115.695-.331.975c-.953 1.229-.953 3.016-.002 4.245.218.281.333.619.333.977-.004.414-.135.755-.362 1.014-.663.885-.762 2.06-.259 3.066.53 1.062 1.59 1.723 2.765 1.724l5.714-.013-.626-1.955c-.165-.57-.22-1.142.044-1.529.301-.598.676-1.342.676-2.307 0-1.027-.331-1.999-.959-2.812-.12-.155-.12-.418 0-.574.627-.812.958-1.783.958-2.811zm-3.333-.976c.218.282.333.619.333.976s-.115.695-.332.975c-.952 1.23-.952 3.016 0 4.245.218.281.333.619.333.977.01.3-.31.856-.495 1.238-.248.511-.345 1.057-.361 1.564h-1.962c-.049 0-.067-.025-.054-.041.611-.805.921-1.749.921-2.761 0-1.027-.331-1.999-.959-2.812-.12-.155-.121-.418 0-.575.627-.812.958-1.784.958-2.81s-.331-1.998-.96-2.812c-.12-.155-.12-.417.002-.574.627-.812.958-1.784.958-2.81 0-1.007-.318-1.961-.923-2.763-.009-.038.026-.041.068-.041h1.938c.017.526.122 1.091.396 1.612.226.423.477.877.472 1.191 0 .357-.115.694-.332.976-.951 1.23-.951 3.015 0 4.244zm-11.167 1.976c-1.933 0-3.5-1.567-3.5-3.5s1.567-3.5 3.5-3.5 3.5 1.567 3.5 3.5-1.567 3.5-3.5 3.5zm0 2c.828 0 1.5.672 1.5 1.5s-.672 1.5-1.5 1.5-1.5-.672-1.5-1.5.672-1.5 1.5-1.5zm4.139 8.17c.065.13.144.248.218.37-.816.293-1.691.46-2.606.46-3.384 0-6.339-2.178-7.366-5.359-2.443-1.988-3.885-4.993-3.885-8.141 0-5.79 4.71-10.5 10.5-10.5 1.156 0 2.266.195 3.308.542-.554.882-.755 1.95-.665 2.948-.823-.311-1.712-.49-2.643-.49-4.136 0-7.5 3.364-7.5 7.5-.018 2.601 1.344 4.941 3.516 6.366.381 2.339 2.332 4.152 4.734 4.134.664 0 1.295-.139 1.869-.386-.058.862.112 1.742.519 2.556z"/></svg>