<?xml version="1.0" encoding="UTF-8"?>
<svg xmlns="http://www.w3.org/2000/svg" id="Layer_1" data-name="Layer 1" viewBox="0 0 24 24">
  <path d="m22,11.238c1.205-.808,2-2.182,2-3.738l-2.419-7.5H2.419L0,7.5c0,1.557.795,2.93,2,3.738v7.762H0v2c0,1.657,1.343,3,3,3h18c1.657,0,3-1.343,3-3v-2h-2v-7.762Zm-3,7.762h-3.308l-.923,1h-5.538l-.923-1h-3.308v-7h.5c1.157,0,2.202-.451,3-1.17.798.72,1.843,1.17,3,1.17h1c1.157,0,2.202-.451,3-1.17.798.72,1.843,1.17,3,1.17h.5v7Zm.5-10h-1c-.827,0-1.5-.673-1.5-1.5v-.5h-3v.5c0,.827-.673,1.5-1.5,1.5h-1c-.827,0-1.5-.673-1.5-1.5v-.5h-3v.5c0,.827-.673,1.5-1.5,1.5h-1c-.759,0-1.388-.566-1.486-1.297l1.567-4.703h2.419v2h3v-2h4v2h3v-2h2.419l1.567,4.703c-.099.731-.728,1.297-1.486,1.297Z"/>
</svg>
