<svg id="Layer_1" viewBox="0 0 24 24" xmlns="http://www.w3.org/2000/svg" data-name="Layer 1"><path d="m14.13 6.627c1.137-1.257 1.153-1.938.077-3.167-.546-.623-.483-1.571.14-2.117.623-.545 1.572-.482 2.116.14 2.078 2.372 2.041 4.78-.108 7.157-.557.616-1.506.661-2.118.106-.614-.556-.662-1.504-.106-2.119zm6.437 5.597c.644.513 1.589.412 2.107-.24.516-.648.408-1.592-.24-2.107-1.591-1.266-3.274-1.267-4.867 0-.648.516-.756 1.459-.24 2.107.516.65 1.459.757 2.107.241.498-.396.635-.396 1.133 0zm-11.067-8.224c.845-.005 1.479-.365 1.5-1.499-.019-1.09-.658-1.494-1.5-1.499-.845.005-1.48.387-1.5 1.499.021 1.131.658 1.494 1.5 1.499zm-7 2c.845-.005 1.479-.365 1.5-1.499-.019-1.09-.658-1.494-1.5-1.499-.845.005-1.48.387-1.5 1.499.021 1.131.658 1.494 1.5 1.499zm18-1c.845-.005 1.479-.365 1.5-1.499-.019-1.09-.658-1.494-1.5-1.499-.845.005-1.48.387-1.5 1.499.021 1.131.658 1.494 1.5 1.499zm1 11.001c-.845.005-1.48.387-1.5 1.499.021 1.131.658 1.494 1.5 1.499.845-.005 1.479-.365 1.5-1.499-.019-1.09-.658-1.494-1.5-1.499zm-5 3.999c-.845.005-1.48.387-1.5 1.499.021 1.131.658 1.494 1.5 1.499.845-.005 1.479-.365 1.5-1.499-.019-1.09-.658-1.494-1.5-1.499zm1.377-3.48c-2.44-4.457-5.938-7.955-10.396-10.396-.481-.264-1.087-.088-1.354.391-.475.856-.918 1.757-1.342 2.678 3.003 1.941 5.238 3.809 6.965 5.826.359.42.31 1.051-.109 1.41-.418.358-1.05.311-1.41-.109-1.57-1.835-3.528-3.489-6.25-5.269-1.38 3.401-2.411 7.102-2.968 10.8-.047.314.057.632.282.856.224.226.545.328.856.282 5.424-.817 10.871-2.634 15.336-5.115.481-.267.656-.872.392-1.354z"/></svg>