<?xml version="1.0" encoding="UTF-8"?>
<svg xmlns="http://www.w3.org/2000/svg" id="Layer_1" data-name="Layer 1" viewBox="0 0 24 24">
  <path d="M12,0C5.373,0,0,5.373,0,12c0,5.223,3.342,9.654,8,11.303v-7.945c-1.72-.447-3-2-3-3.858v-3.5c0-.552,.448-1,1-1s1,.448,1,1v3.5c0,.737,.405,1.375,1,1.722v-5.222c0-.552,.448-1,1-1s1,.448,1,1v5.222c.595-.347,1-.985,1-1.722v-3.5c0-.552,.448-1,1-1s1,.448,1,1v3.5c0,1.858-1.28,3.411-3,3.858v8.462c.652,.11,1.317,.18,2,.18,1.405,0,2.747-.254,4-.697v-4.509c-1.529-1.861-2.037-3.756-1.998-5.462,.121-3.077,1.666-5.25,2.606-6.102,.535-.497,1.388-.122,1.392,.507v14.645c3.583-2.076,6-5.942,6-10.381C24,5.373,18.627,0,12,0Z"/>
</svg>
